<?xml version="1.0" standalone="no"?>
<!DOCTYPE svg PUBLIC "-//W3C//DTD SVG 20010904//EN"
 "http://www.w3.org/TR/2001/REC-SVG-20010904/DTD/svg10.dtd">
<svg version="1.0" xmlns="http://www.w3.org/2000/svg"
 width="884.000000pt" height="884.000000pt" viewBox="0 0 884.000000 884.000000"
 preserveAspectRatio="xMidYMid meet">

<g transform="translate(0.000000,884.000000) scale(0.100000,-0.100000)"
fill="#000000" stroke="none">
<path d="M4125 6990 c-897 -138 -1575 -827 -1706 -1735 -21 -145 -17 -371 10
-495 40 -187 123 -415 227 -622 19 -37 34 -70 34 -73 0 -3 -324 -5 -720 -5
-396 0 -720 -4 -720 -8 0 -5 46 -76 102 -158 56 -82 141 -207 190 -278 51 -76
84 -134 80 -141 -4 -6 -89 -131 -190 -277 -100 -147 -182 -269 -182 -272 0 -3
494 -6 1098 -6 l1097 0 99 -126 c202 -258 583 -703 777 -907 50 -52 59 -57 97
-57 39 0 48 5 98 58 175 180 517 576 737 855 l141 177 1098 0 c604 0 1098 3
1098 6 0 3 -82 125 -182 272 -101 146 -186 271 -190 277 -5 8 34 73 94 161
250 365 278 408 278 416 0 4 -324 8 -720 8 -396 0 -720 2 -720 4 0 1 24 54 54
117 167 356 230 587 228 844 -5 921 -663 1731 -1572 1939 -215 49 -516 60
-735 26z m812 -1331 c343 -138 508 -208 518 -223 8 -11 15 -38 15 -59 0 -51
-27 -76 -120 -111 l-75 -29 3 -299 3 -300 94 -189 c104 -208 113 -242 71 -284
-33 -33 -66 -37 -290 -33 l-198 3 -29 33 c-16 18 -29 44 -29 57 0 14 43 111
95 215 l95 190 0 265 c0 146 -1 265 -3 265 -1 0 -149 -58 -327 -130 -178 -71
-332 -130 -341 -130 -17 0 -946 368 -1002 397 -16 8 -35 30 -43 49 -14 32 -13
39 3 72 18 37 22 39 518 239 275 110 508 202 519 202 10 1 245 -90 523 -200z
m-871 -804 c185 -74 344 -135 353 -135 9 0 107 36 219 81 217 87 232 90 278
44 32 -32 32 -84 2 -120 -26 -29 -454 -205 -499 -205 -21 0 -571 213 -742 287
-41 18 -67 56 -67 98 0 37 50 85 88 85 17 0 182 -61 368 -135z m-1296 -1065
l0 -150 58 32 c49 28 66 33 122 32 109 -1 157 -40 185 -151 12 -47 15 -108 13
-274 l-3 -214 -107 -3 -108 -3 0 208 c0 173 -3 212 -16 231 -22 31 -74 30
-114 -4 l-31 -26 1 -202 2 -201 -106 -3 -106 -3 0 441 0 440 105 0 105 0 0
-150z m-425 70 c73 -35 109 -65 99 -82 -6 -11 -70 -92 -96 -122 -5 -6 -19 -1
-36 11 -128 94 -267 10 -280 -169 -8 -116 29 -207 100 -244 46 -24 127 -15
172 19 19 15 39 27 44 27 10 0 112 -120 112 -132 0 -12 -83 -73 -124 -91 -83
-38 -240 -31 -329 14 -87 45 -156 131 -183 231 -19 69 -19 218 0 286 64 229
313 350 521 252z m2695 -241 c0 -281 6 -327 48 -360 27 -21 87 -25 125 -8 13
6 32 25 43 42 17 29 19 57 22 310 l3 277 105 0 106 0 -4 -287 c-3 -268 -5
-292 -26 -348 -30 -80 -68 -124 -137 -160 -55 -28 -66 -30 -169 -30 -100 1
-116 4 -161 27 -91 47 -133 105 -160 220 -11 47 -15 128 -15 321 l0 257 110 0
110 0 0 -261z m1210 171 l0 -90 -105 0 -105 0 -2 -317 -3 -318 -107 -3 -108
-3 0 321 0 320 -110 0 -110 0 0 90 0 90 325 0 325 0 0 -90z m545 62 c83 -31
134 -70 173 -133 40 -66 51 -103 59 -200 12 -150 -37 -295 -121 -364 -90 -72
-141 -85 -358 -92 l-178 -6 0 413 0 412 183 -4 c155 -4 191 -8 242 -26z
m-2623 -74 l3 -83 73 -3 73 -3 -3 -82 -3 -82 -72 -3 -73 -3 0 -102 c0 -56 5
-118 10 -138 12 -43 46 -64 92 -56 l34 5 16 -76 c8 -43 14 -79 12 -81 -7 -8
-91 -20 -139 -21 -71 0 -121 16 -163 55 -58 52 -72 105 -72 273 l0 142 -45 0
-46 0 3 83 3 82 47 3 46 3 12 72 c6 40 13 78 15 85 3 8 30 12 89 12 l85 0 3
-82z m-492 -94 c50 -21 85 -58 111 -118 21 -48 23 -65 23 -276 l1 -225 -88 -3
-87 -3 -6 31 c-7 31 -18 38 -30 19 -13 -22 -109 -59 -153 -59 -136 0 -226 136
-176 266 29 75 130 131 275 150 55 7 60 14 30 44 -31 31 -87 30 -171 -4 l-55
-22 -38 69 c-20 38 -36 70 -34 72 2 2 26 15 53 28 45 23 97 39 165 51 41 7
141 -4 180 -20z m1000 -299 l0 -75 -160 0 -160 0 0 75 0 75 160 0 160 0 0 -75z"/>
<path d="M4068 5522 c-186 -75 -338 -139 -338 -142 0 -4 155 -69 345 -145
l344 -137 346 138 c190 76 345 140 345 143 0 7 -683 281 -696 280 -5 0 -161
-62 -346 -137z"/>
<path d="M5165 4360 c-20 -39 -20 -40 20 -40 19 0 35 2 35 5 0 9 -30 65 -35
65 -2 0 -11 -13 -20 -30z"/>
<path d="M6590 3473 l0 -233 30 0 c36 0 96 24 123 48 43 38 60 92 60 188 0 78
-4 98 -24 135 -32 56 -62 77 -131 87 l-58 9 0 -234z"/>
<path d="M3535 3325 c-42 -15 -65 -38 -65 -65 0 -40 60 -54 105 -24 20 13 25
25 25 60 0 49 -4 51 -65 29z"/>
</g>
</svg>
